<svg xmlns="http://www.w3.org/2000/svg" xmlns:xlink="http://www.w3.org/1999/xlink" width="212px" height="212px" viewBox="0 0 212 212" version="1.1">
    <!-- Generator: Sketch 63.1 (92452) - https://sketch.com -->
    <title>cat</title>
    <desc>Created with Sketch.</desc>
    <defs>
        <path d="M106.025872,16 C143.439324,16 177.604448,37.2526216 194.141537,70.8128814 L201.057489,84.848068 C208.146586,99.234636 202.230818,116.644103 187.84425,123.7332 C183.851368,125.700725 179.459624,126.724015 175.008303,126.724015 L37.0434416,126.724015 C21.0050925,126.724015 8.00344162,113.722364 8.00344162,97.6840148 C8.00344162,93.2326938 9.02673125,88.8409498 10.994256,84.848068 L17.9102076,70.8128814 C34.4472969,37.2526216 68.6124207,16 106.025872,16 Z" id="path-1"/>
    </defs>
    <g id="cat" stroke="none" stroke-width="1" fill="none" fill-rule="evenodd">
        <g id="Group" transform="translate(1.000000, 48.000000)">
            <g id="Group-3" opacity="0.775192482" transform="translate(104.328053, 52.612035)"/>
            <g id="Group-4" transform="translate(40.520729, 0.000000)" fill="#CE82FF">
                <path d="M40.0515503,0.971921687 L134.133002,60.8761729 L134.133002,60.8761729 L31.0223892,63.6196959 L31.0223892,5.92692121 C31.0223892,2.68270316 33.6523476,0.0527448065 36.8965656,0.0527448065 C38.0142575,0.0527448065 39.1087521,0.371616123 40.0515503,0.971921687 Z" id="Triangle-2" transform="translate(82.577696, 31.861692) scale(-1, 1) translate(-82.577696, -31.861692) "/>
                <path d="M9.34154311,0.971921687 L103.422995,60.8761729 L103.422995,60.8761729 L0.312382056,63.6196959 L0.312382056,5.92692121 C0.312382056,2.68270316 2.94234041,0.0527448065 6.18655846,0.0527448065 C7.30425035,0.0527448065 8.39874493,0.371616123 9.34154311,0.971921687 Z" id="Triangle-2"/>
            </g>
            <g id="Rectangle-4" transform="translate(11.477926, 6.481434)"/>
            <mask id="mask-2" fill="white">
                <use xlink:href="#path-1"/>
            </mask>
            <use id="Mask" fill="#CE82FF" xlink:href="#path-1"/>
            <rect id="Rectangle" fill="#B667E8" mask="url(#mask-2)" x="-16.8814433" y="89.3793103" width="55.9948454" height="17.6551724" rx="8.82758621"/>
            <path d="M2.94614291,64 L41.2858159,64 C46.1611571,64 50.1134021,67.952245 50.1134021,72.8275862 C50.1134021,77.7029274 46.1611571,81.6551724 41.2858159,81.6551724 L2.94614291,81.6551724 C-1.92919833,81.6551724 -5.8814433,77.7029274 -5.8814433,72.8275862 C-5.8814433,67.952245 -1.92919833,64 2.94614291,64 Z" id="Rectangle" fill="#B667E8" mask="url(#mask-2)"/>
            <rect id="Rectangle" fill="#B667E8" mask="url(#mask-2)" x="172.984536" y="89.3793103" width="55.9948454" height="17.6551724" rx="8.82758621"/>
            <rect id="Rectangle" fill="#B667E8" mask="url(#mask-2)" x="161.984536" y="64" width="55.9948454" height="17.6551724" rx="8.82758621"/>
            <path d="M117.907802,41.447619 C122.202986,41.447619 125.684922,44.9295542 125.684922,49.2247389 L125.684922,61.9237735 C125.684922,66.2189582 122.202986,69.7008934 117.907802,69.7008934 C113.612617,69.7008934 110.130682,66.2189582 110.130682,61.9237735 L110.130682,49.2247389 C110.130682,44.9295542 113.612617,41.447619 117.907802,41.447619 Z" id="Rectangle-4" fill="#9046C1" mask="url(#mask-2)"/>
            <path d="M95.1237108,41.447619 C99.4188955,41.447619 102.900831,44.9295542 102.900831,49.2247389 L102.900831,61.9237735 C102.900831,66.2189582 99.4188955,69.7008934 95.1237108,69.7008934 C90.8285261,69.7008934 87.3465909,66.2189582 87.3465909,61.9237735 L87.3465909,49.2247389 C87.3465909,44.9295542 90.8285261,41.447619 95.1237108,41.447619 Z" id="Rectangle-4-Copy" fill="#9046C1" mask="url(#mask-2)"/>
            <path d="M89.3666647,72 L123.355454,72 C135.155937,72 144.722119,81.5661816 144.722119,93.3666647 L144.722119,93.6861976 C144.722119,105.486681 135.155937,115.052862 123.355454,115.052862 L89.3666647,115.052862 C77.5661816,115.052862 68,105.486681 68,93.6861976 L68,93.3666647 C68,81.5661816 77.5661816,72 89.3666647,72 Z" id="Rectangle-41-Copy" fill="#FFFFFF" mask="url(#mask-2)"/>
            <path d="M110.907527,73.9362308 L115.179988,78.7278056 C117.317664,81.1252145 117.107109,84.8016274 114.7097,86.9393034 C113.64424,87.889332 112.266595,88.4143312 110.839095,88.4143312 L102.142365,88.4143312 C98.9367485,88.4143312 96.3380829,85.8156656 96.3380829,82.6100492 C96.3380829,81.1764349 96.8686363,79.7935396 97.8275215,78.7278056 L102.156351,73.9166128 C104.326274,71.5048945 108.040428,71.3088807 110.452147,73.4788037 C110.612209,73.6228183 110.764232,73.7755245 110.907527,73.9362308 Z" id="Triangle" fill="#FFAADE" opacity="0.721372768" mask="url(#mask-2)" transform="translate(106.496579, 80.192855) scale(1, -1) translate(-106.496579, -80.192855) "/>
        </g>
    </g>
</svg>