<svg xmlns="http://www.w3.org/2000/svg" xmlns:xlink="http://www.w3.org/1999/xlink" width="212px" height="212px"
     viewBox="0 0 212 212" version="1.1">
    <title>seven</title>
    <desc>Created with Sketch.</desc>
    <g id="seven" stroke="none" stroke-width="1" fill="none" fill-rule="evenodd">
        <path d="M85.914,151.837 C85.914,150.007 86.28,148.177 87.012,146.347 L121.05,61.435 L121.05,60.886 L94.698,60.886 C93.966,60.886 93.6,61.252 93.6,61.984 L93.6,65.095 C93.6,72.964 88.659,77.905 81.705,77.905 C74.568,77.905 69.627,72.964 69.627,65.095 L69.627,50.638 C69.627,43.135 74.202,38.56 81.888,38.56 L134.592,38.56 C143.925,38.56 149.049,43.867 149.049,52.285 C149.049,56.494 148.134,60.154 144.474,69.304 L110.07,155.863 C107.874,161.17 103.116,164.098 97.992,164.098 C90.855,164.098 85.914,158.974 85.914,151.837 Z"
              id="7" fill="#1CB0F6"/>
    </g>
    <div xmlns="" id="immersive-translate-popup" style="all: initial"/>
</svg>