<svg xmlns="http://www.w3.org/2000/svg" xmlns:xlink="http://www.w3.org/1999/xlink" width="212px" height="212px"
     viewBox="0 0 212 212" version="1.1">
    <title>six</title>
    <desc>Created with Sketch.</desc>
    <g id="six" stroke="none" stroke-width="1" fill="none" fill-rule="evenodd">
        <path d="M66.15,125.851 C66.15,115.237 69.444,105.721 75.3,95.107 L102.567,44.599 C105.129,39.841 109.338,37.462 113.913,37.462 C120.135,37.462 125.808,41.854 125.808,48.808 C125.808,51.187 125.259,53.566 123.795,56.128 L105.678,88.885 L106.044,89.068 C107.325,88.336 110.619,87.787 113.913,87.787 C133.677,87.787 149.598,102.427 149.598,125.119 C149.598,150.19 131.481,165.013 107.874,165.013 C83.901,165.013 66.15,150.19 66.15,125.851 Z M91.404,126.034 C91.404,136.282 97.992,143.419 107.874,143.419 C117.756,143.419 124.344,136.282 124.344,126.034 C124.344,115.969 117.756,108.832 107.874,108.832 C97.992,108.832 91.404,115.969 91.404,126.034 Z"
              id="6" fill="#1CB0F6"/>
    </g>
</svg>