<svg xmlns="http://www.w3.org/2000/svg" xmlns:xlink="http://www.w3.org/1999/xlink" width="212px" height="212px"
     viewBox="0 0 212 212" version="1.1">
    <title>two</title>
    <desc>Created with Sketch.</desc>
    <g id="two" stroke="none" stroke-width="1" fill="none" fill-rule="evenodd">
        <path d="M67.248,152.02 C67.248,146.713 69.261,142.87 74.934,136.099 L113.73,89.617 C118.488,83.944 121.05,78.82 121.05,72.415 C121.05,64.18 116.109,58.141 107.325,58.141 C100.188,58.141 95.613,61.801 92.319,68.572 C89.757,73.879 85.914,76.807 80.79,76.807 C74.202,76.807 69.261,72.232 69.261,65.461 C69.261,64.546 69.444,63.448 69.627,62.35 C72.372,48.991 86.28,36.547 108.423,36.547 C132.03,36.547 146.67,51.919 146.67,72.049 C146.67,83.944 141.729,93.094 134.043,102.244 L101.286,140.857 L101.286,141.223 L136.239,141.223 C143.742,141.223 147.951,145.615 147.951,152.203 C147.951,158.608 143.742,163 136.239,163 L79.143,163 C71.823,163 67.248,158.425 67.248,152.02 Z"
              id="2" fill="#1CB0F6"/>
    </g>
</svg>