<svg xmlns="http://www.w3.org/2000/svg" xmlns:xlink="http://www.w3.org/1999/xlink" width="212px" height="212px"
     viewBox="0 0 212 212" version="1.1">
    <title>three</title>
    <desc>Created with Sketch.</desc>
    <g id="three" stroke="none" stroke-width="1" fill="none" fill-rule="evenodd">
        <path d="M71.274,145.981 C70.359,143.968 69.993,141.772 69.993,139.759 C69.993,133.354 74.385,128.413 81.522,128.413 C86.097,128.413 90.306,130.975 93.234,135.733 C96.162,140.491 100.92,143.419 107.325,143.419 C116.841,143.419 122.697,136.648 122.697,127.132 C122.697,116.335 115.194,109.747 106.227,109.747 L104.946,109.747 C98.358,109.747 93.783,105.355 93.783,98.95 C93.783,92.545 98.358,88.153 104.946,88.153 L106.227,88.153 C114.462,88.153 120.318,82.297 120.318,72.781 C120.318,63.997 114.828,58.141 106.41,58.141 C99.09,58.141 95.613,61.801 93.783,65.644 C91.404,70.402 87.012,72.964 82.437,72.964 C75.849,72.964 71.091,68.206 71.091,61.618 C71.091,59.605 71.64,57.409 72.555,55.213 C77.13,44.782 89.574,36.547 107.508,36.547 C131.847,36.547 145.938,51.004 145.938,70.951 C145.938,81.565 140.997,90.715 132.03,96.571 L132.03,96.937 C139.716,100.597 148.317,110.662 148.317,126.949 C148.317,149.641 131.115,165.013 107.691,165.013 C89.757,165.013 76.581,158.059 71.274,145.981 Z"
              id="3" fill="#1CB0F6"/>
    </g>
    <div xmlns="" id="immersive-translate-popup" style="all: initial"/>
</svg>