<svg xmlns="http://www.w3.org/2000/svg" xmlns:xlink="http://www.w3.org/1999/xlink" width="212px" height="212px" viewBox="0 0 212 212" version="1.1">
    <!-- Generator: Sketch 64 (93537) - https://sketch.com -->
    <title>mother</title>
    <desc>Created with Sketch.</desc>
    <defs>
        <path d="M16.3486797,0.652051726 C18.611914,-0.674503587 21.5220135,0.0848247924 22.8485688,2.34805913 C24.1514357,4.57087857 23.4422495,7.41766711 21.2723641,8.77538064 L21.1525614,8.84794827 L20.7825282,9.06483678 C15.0249262,12.4395548 7.86682359,12.3256506 2.21951059,8.7694505 C-0.000370621475,7.37155707 -0.666723377,4.43877125 0.731170058,2.21889003 C2.10364725,0.0393702954 4.95570996,-0.642599364 7.15995259,0.656344882 L7.28173053,0.730549498 C9.8724189,2.36194592 13.1417386,2.44709794 15.8092119,0.965629819 L15.9786465,0.868940232 L16.3486797,0.652051726 Z" id="path-1"/>
    </defs>
    <g id="mother" stroke="none" stroke-width="1" fill="none" fill-rule="evenodd">
        <g id="Group-6" transform="translate(173.500000, 44.137550) rotate(-113.000000) translate(-173.500000, -44.137550) translate(141.000000, 13.637550)" fill="#47D7FF">
            <rect id="Rectangle" x="16.0738577" y="32.1148458" width="32.7804878" height="28.4210526" rx="6.31699699"/>
            <path d="M36.2007557,5.32963228 L58.500696,33.9381083 C60.1093214,36.0018053 59.7404129,38.9788109 57.6767158,40.5874363 C56.8444117,41.2362067 55.8193301,41.58853 54.7640419,41.58853 L10.1641614,41.58853 C7.54757555,41.58853 5.42641363,39.467368 5.42641363,36.8507822 C5.42641363,35.795494 5.77873685,34.7704124 6.42750726,33.9381083 L28.7274475,5.32963228 C30.3360729,3.2659352 33.3130785,2.89702672 35.3767756,4.50565214 C35.6842952,4.74535977 35.9610481,5.02211262 36.2007557,5.32963228 Z" id="Triangle"/>
        </g>
        <g id="Group-2" transform="translate(4.000000, 5.000000)">
            <g id="Group">
                <g id="Group-3">
                    <path d="M77.8777341,2.75122159e-13 C100.235206,2.71015158e-13 120.447032,13.3079332 129.281949,33.8457223 L151.998376,86.6526925 C159.831913,104.862658 151.420156,125.975089 133.21019,133.808626 C128.729822,135.735985 123.903653,136.730006 119.026316,136.730006 L36.7291521,136.730006 C16.9057528,136.730006 0.835712487,120.659966 0.835712487,100.836566 C0.835712487,95.95923 1.82973381,91.1330608 3.75709223,86.6526925 L26.4735195,33.8457223 C35.3084364,13.3079332 55.5202626,2.7922916e-13 77.8777341,2.75122159e-13 Z" id="Rectangle" fill="#F69100"/>
                    <ellipse id="Oval-6-Copy-15" fill="#FFB5A1" cx="121.546193" cy="53.6666674" rx="12.0338021" ry="12.1000005"/>
                    <ellipse id="Oval-6-Copy-16" fill="#FFB5A1" cx="35.0238031" cy="53.6666674" rx="12.0338021" ry="12.1000005"/>
                    <path d="M63.0014236,19.6020003 L93.2356124,19.6020003 C105.741961,19.6020003 116.319068,28.8546988 117.982217,41.2499675 L122.181814,72.5491119 C125.447054,96.8845981 108.366245,119.259408 84.030759,122.524649 C82.0709861,122.787603 80.0958534,122.91952 78.118518,122.91952 C53.5649503,122.91952 33.660351,103.014921 33.660351,78.4613529 C33.660351,76.4840175 33.7922677,74.5088848 34.0552224,72.5491119 L38.2548194,41.2499675 C39.9179681,28.8546988 50.4950752,19.6020003 63.0014236,19.6020003 Z" id="Rectangle-12-Copy-12" fill="#FFB5A1"/>
                    <rect id="Rectangle-Copy-8" fill="#FFFFFF" x="83.8530014" y="34.8480006" width="21.7800004" height="33.7590006" rx="10.8900002"/>
                    <rect id="Rectangle-Copy-9" fill="#FFFFFF" x="49.0050008" y="34.8480006" width="21.7800004" height="33.7590006" rx="10.8900002"/>
                    <rect id="Rectangle-35-Copy-17" fill="#363636" x="86.0310015" y="40.0510006" width="10.8900002" height="18.5130003" rx="5.44500009"/>
                    <rect id="Rectangle-35-Copy-18" fill="#363636" x="57.717001" y="40.0510006" width="10.8900002" height="18.5130003" rx="5.44500009"/>
                    <path d="M77.449063,38.1150006 C79.9266465,38.1150006 81.9351247,40.1234789 81.9351247,42.6010624 L81.9351247,63.7214203 C81.9351247,66.1990038 79.9266465,68.2074821 77.449063,68.2074821 C74.9714795,68.2074821 72.9630012,66.1990038 72.9630012,63.7214203 L72.9630012,42.6010624 C72.9630012,40.1234789 74.9714795,38.1150006 77.449063,38.1150006 Z" id="Rectangle-36-Copy-8" fill="#F68D70"/>
                    <path d="M47.3153625,54.8201096 C54.2589602,51.7138383 67.2593969,58.3135154 71.8073641,65.3300477 L72.0392505,65.6961138 L65.4426363,73.84603 L45.3720169,66.3713198 L47.3153625,54.8201096 Z" id="Path-22-Copy" fill="#FFB5A1" fill-rule="nonzero" transform="translate(58.705634, 63.938647) rotate(-8.000000) translate(-58.705634, -63.938647) "/>
                    <path d="M84.4075067,54.8208963 C91.3511044,51.714625 104.351541,58.3143021 108.899508,65.3308344 L109.131395,65.6969006 L102.512279,74.0069203 L82.4416601,66.5322101 L84.4075067,54.8208963 Z" id="Path-22-Copy-2" fill="#FFB5A1" fill-rule="nonzero" transform="translate(95.786527, 64.019485) scale(-1, 1) rotate(-8.000000) translate(-95.786527, -64.019485) "/>
                    <ellipse id="freckle-3" fill="#F68D70" transform="translate(108.167362, 63.682485) scale(-1, 1) rotate(-19.000000) translate(-108.167362, -63.682485) " cx="108.167362" cy="63.6824853" rx="2.49225653" ry="2.50770679"/>
                    <ellipse id="freckle-3" fill="#F68D70" transform="translate(112.190043, 70.372010) scale(-1, 1) rotate(-19.000000) translate(-112.190043, -70.372010) " cx="112.190043" cy="70.3720105" rx="2.49225653" ry="2.50770679"/>
                    <ellipse id="freckle-3-copy" fill="#F68D70" transform="translate(102.922261, 70.372010) scale(-1, 1) rotate(-19.000000) translate(-102.922261, -70.372010) " cx="102.922261" cy="70.3720105" rx="2.49225653" ry="2.50770679"/>
                    <ellipse id="freckle-3" fill="#F68D70" transform="translate(46.096445, 63.682485) rotate(-19.000000) translate(-46.096445, -63.682485) " cx="46.0964446" cy="63.6824853" rx="2.49225653" ry="2.50770679"/>
                    <ellipse id="freckle-3" fill="#F68D70" transform="translate(42.073764, 70.372010) rotate(-19.000000) translate(-42.073764, -70.372010) " cx="42.0737639" cy="70.3720105" rx="2.49225653" ry="2.50770679"/>
                    <ellipse id="freckle-3-copy-2" fill="#F68D70" transform="translate(50.892259, 70.372010) rotate(-19.000000) translate(-50.892259, -70.372010) " cx="50.8922586" cy="70.3720105" rx="2.49225653" ry="2.50770679"/>
                </g>
                <path d="M67.7600029,65.3400028 C67.7600029,76.7005006 76.969506,85.9100037 88.3300038,85.9100037" id="Path" stroke="#F68D70" stroke-width="4.84000021" stroke-linecap="round" stroke-linejoin="round" transform="translate(78.045003, 75.625003) rotate(-45.000000) translate(-78.045003, -75.625003) "/>
            </g>
            <circle id="Oval" fill="#FFFFFF" cx="58.6850025" cy="41.7450018" r="4.23500018"/>
            <path d="M84.7224682,45.5830458 C85.266836,45.8377264 85.8743048,45.980002 86.5150038,45.980002 C88.8539298,45.980002 90.7500039,44.0839278 90.7500039,41.7450018 C90.7500039,40.3834669 90.1074939,39.1719982 89.109135,38.3972571 L86.5150038,40.0510006 L84.7224682,42.9484022 L84.7224682,45.5830458 Z" id="Path" fill="#FFFFFF"/>
            <path d="M133.32684,12.0669042 L67.5322229,12.0669042 C63.713847,12.0669042 61.3082228,16.1781965 63.178843,19.5069762 C70.6107215,32.7320485 84.7789991,41.1119735 100.429531,41.1119735 C116.080063,41.1119735 130.248341,32.7320485 137.68022,19.5069762 C139.55084,16.1781965 137.145216,12.0669042 133.32684,12.0669042 Z" id="Bang-L" fill="#F69100" fill-rule="nonzero"/>
        </g>
        <g id="Group-24-Copy-4" transform="translate(154.500000, 142.661960) rotate(39.000000) translate(-154.500000, -142.661960) translate(106.000000, 74.161960)">
            <rect id="Rectangle-Copy-51" fill="#FFC6B7" x="0" y="36.9464445" width="96.5" height="20" rx="10"/>
            <circle id="Oval-Copy-13" fill="#FF9600" cx="52.5" cy="12.5" r="5.5"/>
            <circle id="Oval-Copy-12" fill="#FF9600" cx="44.5" cy="7" r="7"/>
            <rect id="Rectangle-Copy-32" fill="#FFC6B7" x="12" y="11.9464445" width="71.5" height="115" rx="25"/>
            <g id="Group-24-Copy" transform="translate(24.000000, 22.446445)">
                <rect id="Rectangle-Copy-27" fill="#FFFFFF" transform="translate(34.921149, 13.229999) rotate(-360.000000) translate(-34.921149, -13.229999) " x="24.5261496" y="0" width="20.7899985" height="26.4599981" rx="10.3949993"/>
                <rect id="Rectangle-Copy-26" fill="#FFFFFF" transform="translate(11.294999, 13.295959) rotate(-360.000000) translate(-11.294999, -13.295959) " x="0.899999976" y="0.065960044" width="20.7899985" height="26.4599981" rx="10.3949993"/>
                <rect id="Mask-Copy-6" fill="#363636" transform="translate(31.554370, 13.703067) rotate(-360.000000) translate(-31.554370, -13.703067) " x="25.8843709" y="5.19806802" width="11.3399992" height="17.0099988" rx="5.66999959"/>
                <path d="M25.1273335,10.8004557 C25.6053179,11.0188651 26.136747,11.1405783 26.6966038,11.1405783 C28.78424,11.1405783 30.4766035,9.44821481 30.4766035,7.36057861 C30.4766035,5.96046842 29.7153865,4.73814998 28.5842371,4.08490772 L25.8546799,6.79597699 L25.1273335,10.8004557 Z" id="Path-Copy" fill="#FFFFFF" transform="translate(27.801969, 7.612743) rotate(2.000000) translate(-27.801969, -7.612743) "/>
                <rect id="Mask-Copy-5" fill="#363636" transform="translate(14.521754, 14.053851) rotate(-360.000000) translate(-14.521754, -14.053851) " x="8.85175414" y="5.54885189" width="11.3399992" height="17.0099988" rx="5.66999959"/>
                <circle id="Oval-Copy-8" fill="#FFFFFF" transform="translate(9.706441, 6.728515) rotate(2.000000) translate(-9.706441, -6.728515) " cx="9.70644078" cy="6.72851515" r="3.77999973"/>
                <path d="M43.0101475,18.9716713 L43.0101475,18.9716713 L43.0101475,18.9716713 L43.0101475,36.0716709 L25.910148,29.5719223 L27.4217015,27.9936403 C31.6581485,23.5701726 37.0641812,20.4413771 43.0101475,18.9716713 Z" id="Rectangle-Copy-3" fill="#FFC6B7" transform="translate(34.460148, 27.521671) rotate(-337.000000) translate(-34.460148, -27.521671) "/>
                <path d="M19.7999995,18.9716713 L19.7999995,18.9716713 L19.7999995,18.9716713 L19.7999995,36.0716709 L2.69999993,29.5719223 L4.21155346,27.9936403 C8.44800048,23.5701726 13.8540332,20.4413771 19.7999995,18.9716713 Z" id="Rectangle-Copy-2" fill="#FFC6B7" transform="translate(11.250000, 27.521671) scale(-1, 1) rotate(-337.000000) translate(-11.250000, -27.521671) "/>
            </g>
            <path d="M11,64.9464445 L85.5,64.9464445 C88.8137085,64.9464445 91.5,67.632736 91.5,70.9464445 L91.5,100.696445 C91.5,120.440624 75.4941798,136.446445 55.75,136.446445 L40.75,136.446445 C21.0058202,136.446445 5,120.440624 5,100.696445 L5,70.9464445 C5,67.632736 7.6862915,64.9464445 11,64.9464445 Z" id="Rectangle-Copy-30" fill="#1CB0F6"/>
            <path d="M60.9150875,100.881302 C62.6488523,100.416741 64.4309474,101.445634 64.8955083,103.179399 C65.3600692,104.913164 64.3311761,106.695259 62.5974112,107.15982 C40.0165974,113.21033 16.9258482,103.503327 4.9999771,84.7792658 L5,70.9464445 C5,70.461784 5.05746452,69.9905451 5.16595187,69.5391694 C12.1173815,93.3344169 36.8470475,107.330314 60.9150875,100.881302 Z" id="Combined-Shape-Copy-5" fill="#1899D6"/>
            <g id="Rectangle-Copy-56" transform="translate(35.749379, 52.946445)">
                <mask id="mask-2" fill="white">
                    <use xlink:href="#path-1"/>
                </mask>
                <use id="Mask" fill="#9A3333" fill-rule="nonzero" xlink:href="#path-1"/>
            </g>
            <path d="M47.1749994,53.5720396 C49.2874885,53.5720396 50.9999993,51.8099876 50.9999993,49.6363862 C50.9999993,47.4627849 47.1749994,42.3220399 47.1749994,42.3220399 C47.1749994,42.3220399 43.3499995,47.4627849 43.3499995,49.6363862 C43.3499995,51.8099876 45.0625103,53.5720396 47.1749994,53.5720396 Z" id="Oval-Copy-22" fill="#EE9583"/>
            <path d="M55.5944771,62.5225235 L55.5019147,62.5706151 C50.271206,65.1933176 44.0783341,65.0875216 38.9393394,62.2853075 C39.5583098,61.7294386 40.2446656,61.2299331 40.993809,60.797415 C45.8194773,58.0113141 51.7496703,58.8712615 55.5944771,62.5225235 Z" id="Combined-Shape" fill="#E15F3C" fill-rule="nonzero"/>
        </g>
    </g>
</svg>