<svg xmlns="http://www.w3.org/2000/svg" xmlns:xlink="http://www.w3.org/1999/xlink" width="212px" height="212px" viewBox="0 0 212 212" version="1.1">
    <!-- Generator: Sketch 63.1 (92452) - https://sketch.com -->
    <title>teacher m</title>
    <desc>Created with Sketch.</desc>
    <g id="teacher-m" stroke="none" stroke-width="1" fill="none" fill-rule="evenodd">
        <g id="Group" transform="translate(7.000000, 4.000000)">
            <g id="Group-2">
                <rect id="Rectangle" stroke="#9F532B" stroke-width="9" fill="#90C05B" stroke-linejoin="round" x="0" y="3" width="198" height="142" rx="13"/>
                <path d="M98,135 L161,135 C180.329966,135 196,150.670034 196,170 L196,201 C196,203.209139 194.209139,205 192,205 L70,205 C66.1340068,205 63,201.865993 63,198 L63,170 C63,150.670034 78.6700338,135 98,135 Z" id="Rectangle-Copy-53" fill="#2B70C9"/>
                <rect id="Rectangle" fill="#06499E" x="125" y="165" width="9" height="36" rx="4.5"/>
                <circle id="Oval" fill="#06499E" cx="115.5" cy="182.5" r="5.5"/>
                <path d="M146.5,184 L174.401843,184 C176.058697,184 177.401843,185.343146 177.401843,187 L177.401843,205 L177.401843,205 L143.5,205 L143.5,187 C143.5,185.343146 144.843146,184 146.5,184 Z" id="Rectangle" fill="#06499E"/>
                <text id="2-2" font-family="DINNextRoundedLTPro-Bold, DIN Next Rounded LT Pro" font-size="28.7999992" font-weight="bold" fill="#FFFFFF">
                    <tspan x="32" y="37">2</tspan>
                    <tspan x="32" y="66">2</tspan>
                </text>
                <text id="+" font-family="DINNextRoundedLTPro-Bold, DIN Next Rounded LT Pro" font-size="31.4999992" font-weight="bold" fill="#FFFFFF">
                    <tspan x="12" y="68">+</tspan>
                </text>
                <path d="M105.3,132 L134,132 L134,132 L134,154.75 L109.892102,168.009344 C106.335285,169.965593 101.866062,168.668077 99.909813,165.11126 C99.3129582,164.026069 99,162.807654 99,161.569157 L99,138.3 C99,134.820606 101.820606,132 105.3,132 Z" id="Rectangle-Copy-16" fill="#06499E"/>
                <path d="M132.3,132 L161,132 L161,132 L161,154.75 L136.892102,168.009344 C133.335285,169.965593 128.866062,168.668077 126.909813,165.11126 C126.312958,164.026069 126,162.807654 126,161.569157 L126,138.3 C126,134.820606 128.820606,132 132.3,132 Z" id="Rectangle-Copy-15" fill="#06499E" transform="translate(143.500000, 153.000000) scale(-1, 1) translate(-143.500000, -153.000000) "/>
                <rect id="Rectangle" fill="#C18125" x="67" y="81" width="124" height="29" rx="14.5"/>
                <path d="M99,18 L160,18 C173.807119,18 185,29.1928813 185,43 L185,80 C185,94.9116882 172.911688,107 158,107 L101,107 C86.0883118,107 74,94.9116882 74,80 L74,43 C74,29.1928813 85.1928813,18 99,18 Z" id="Rectangle" fill="#4B4B4B"/>
                <path d="M109,123 L150,123 L150,131.5 C150,142.821837 140.821837,152 129.5,152 C118.178163,152 109,142.821837 109,131.5 L109,123 L109,123 Z" id="Rectangle" fill="#C18125"/>
                <path d="M98.5047595,27.9265242 L55.5047595,27.9265242 C54.1240476,27.9265242 53.0047595,29.0458123 53.0047595,30.4265242 C53.0047595,43.6813582 63.7499255,54.4265242 77.0047595,54.4265242 C90.2595935,54.4265242 101.004759,43.6813582 101.004759,30.4265242 C101.004759,29.0458123 99.8854714,27.9265242 98.5047595,27.9265242 Z" id="Path" fill="#4B4B4B" fill-rule="nonzero" transform="translate(77.004759, 41.176524) rotate(-318.000000) translate(-77.004759, -41.176524) "/>
                <path d="M114.5,13 L71.5,13 C70.1192881,13 69,14.1192881 69,15.5 C69,28.754834 79.745166,39.5 93,39.5 C106.254834,39.5 117,28.754834 117,15.5 C117,14.1192881 115.880712,13 114.5,13 Z" id="Path-Copy" fill="#4B4B4B" fill-rule="nonzero" transform="translate(93.000000, 26.250000) rotate(-318.000000) translate(-93.000000, -26.250000) "/>
                <path d="M129,32 C146.737616,32 162.306306,43.8082346 167.088898,60.8889206 L177.401598,97.719992 C181.422235,112.079411 173.040996,126.979391 158.681577,131.000029 C156.311818,131.663561 153.86247,132 151.401569,132 L107.256839,132 C92.345151,132 80.2568393,119.911688 80.2568393,105 C80.2568393,102.623149 80.5706901,100.256703 81.1902541,97.962022 L91.1800244,60.9628725 C95.7945006,43.8722201 111.297351,32 129,32 Z" id="Rectangle-Copy-3" fill="#C18125"/>
                <rect id="Rectangle-Copy-24" fill="#FFFFFF" x="103" y="57" width="28.125" height="36" rx="14.0625"/>
                <rect id="Rectangle-Copy-23" fill="#FFFFFF" x="128.875" y="57" width="28.125" height="36" rx="14.0625"/>
                <path d="M133.152994,87.5751522 L136.68373,86.4440088 C143.737831,84.1840831 151.375424,84.5864822 158.152994,87.5751522 L158.152994,87.5751522 L158.152994,87.5751522 L158.152994,96.5751522 L133.152994,96.5751522 L133.152994,87.5751522 Z" id="Rectangle-Copy-20" fill="#C18125" transform="translate(145.652994, 89.755673) rotate(-15.000000) translate(-145.652994, -89.755673) "/>
                <path d="M100,87.5751522 L103.530735,86.4440088 C110.584836,84.1840831 118.22243,84.5864822 125,87.5751522 L125,87.5751522 L125,87.5751522 L125,96.5751522 L100,96.5751522 L100,87.5751522 Z" id="Rectangle-Copy-25" fill="#C18125" transform="translate(112.500000, 89.755673) scale(-1, 1) rotate(-15.000000) translate(-112.500000, -89.755673) "/>
                <rect id="Rectangle-Copy-21" fill="#4B4B4B" x="107" y="62" width="14" height="20" rx="7"/>
                <rect id="Rectangle-Copy-22" fill="#4B4B4B" x="133" y="62" width="14" height="20" rx="7"/>
                <path d="M113,103 C113,112.388841 120.611159,120 130,120 C139.388841,120 147,112.388841 147,103" id="Path" fill="#A86505"/>
                <rect id="Rectangle-Copy-17" fill="#4B4B4B" transform="translate(118.308109, 103.748866) rotate(-345.000000) translate(-118.308109, -103.748866) " x="104.808109" y="95.2488656" width="27" height="17" rx="8.5"/>
                <rect id="Rectangle-Copy-19" fill="#4B4B4B" transform="translate(140.465926, 103.748866) scale(-1, 1) rotate(-345.000000) translate(-140.465926, -103.748866) " x="126.965926" y="95.2488656" width="27" height="17" rx="8.5"/>
                <rect id="Rectangle-Copy-15" fill="#C18125" x="122" y="83" width="15" height="19" rx="7.5"/>
                <path d="M48.1999998,163 L77.8000002,163 C81.7764503,163 85,166.22355 85,170.2 L85,205 L85,205 L49,205 C44.581722,205 41,201.418278 41,197 L41,170.2 C41,166.22355 44.2235497,163 48.1999998,163 Z" id="Rectangle-Copy-36" fill="#2B70C9"/>
                <line x1="17.4148936" y1="78.5" x2="55.5851064" y2="78.5" id="Line" stroke="#FFFFFF" stroke-width="5.39999986" stroke-linecap="round" stroke-linejoin="round"/>
                <path d="M45.1848958,145.208845 L66.4497122,150.742561 C72.1919089,152.236846 75.6355221,158.103173 74.1412376,163.845369 C74.1280528,163.896036 74.1144977,163.946605 74.1005735,163.997074 L74.0554358,164.160676 C72.4723507,169.898597 66.5755548,173.302387 60.8151042,171.803352 L39.5502878,166.269636 C33.8080911,164.775352 30.3644779,158.909024 31.8587624,153.166828 C31.8719472,153.116161 31.8855023,153.065592 31.8994265,153.015123 L31.9445642,152.851521 C33.5276493,147.1136 39.4244452,143.70981 45.1848958,145.208845 Z" id="Rectangle-Copy-48" fill="#C18125" transform="translate(53.000000, 158.506099) rotate(-15.000000) translate(-53.000000, -158.506099) "/>
                <rect id="Rectangle-Copy-6" fill="#C18125" transform="translate(34.302916, 149.106402) rotate(-25.000000) translate(-34.302916, -149.106402) " x="25.802916" y="131.106402" width="17" height="36" rx="8.5"/>
                <path d="M67.2803526,114.507939 C61.3484457,112.013391 54.5152078,114.774112 51.9808808,120.689133 L46.5798244,133.29499 C44.0673864,139.158923 46.7843099,145.949313 52.648243,148.461751 C52.6720105,148.471934 52.6958121,148.482038 52.7196474,148.492061 C58.6515543,150.986609 65.4847922,148.225888 68.0191192,142.310867 L73.4201756,129.70501 C75.9326136,123.841077 73.2156901,117.050687 67.351757,114.538249 C67.3279895,114.528066 67.3041879,114.517962 67.2803526,114.507939 Z" id="Rectangle-Copy-10" fill="#E93030"/>
                <path d="M40.7196474,114.507939 C46.6515543,112.013391 53.4847922,114.774112 56.0191192,120.689133 L61.4201756,133.29499 C63.9326136,139.158923 61.2156901,145.949313 55.351757,148.461751 C55.3279895,148.471934 55.3041879,148.482038 55.2803526,148.492061 C49.3484457,150.986609 42.5152078,148.225888 39.9808808,142.310867 L34.5798244,129.70501 C32.0673864,123.841077 34.7843099,117.050687 40.648243,114.538249 C40.6720105,114.528066 40.6958121,114.517962 40.7196474,114.507939 Z" id="Rectangle-Copy-9" fill="#E93030"/>
                <rect id="Rectangle-Copy-7" fill="#E93030" x="41" y="127" width="26" height="23" rx="8.11999977"/>
                <path d="M33.16,94 L40.5,94 C45.1944204,94 49,97.8055796 49,102.5 L49,109.84 C49,110.48065 48.4806503,111 47.84,111 L40.5,111 C35.8055796,111 32,107.19442 32,102.5 L32,95.16 C32,94.5193497 32.5193497,94 33.16,94 Z" id="Rectangle-Copy-5" fill="#478700" transform="translate(40.500000, 102.500000) rotate(-360.000000) translate(-40.500000, -102.500000) "/>
                <path d="M57.5240001,101 L58,101 C59.8965433,101 61.4339955,102.537452 61.4339955,104.433995 C61.4339955,104.855471 61.3564055,105.273346 61.2051046,105.666728 L55.9154853,119.419738 C55.6165112,120.197071 54.7439922,120.584857 53.9666596,120.285883 C53.384282,120.061892 53,119.502366 53,118.878398 L53,105.524 C53,103.025464 55.0254638,101 57.5240001,101 Z" id="Rectangle-Copy-2" fill="#893101"/>
                <rect id="Rectangle-Copy" fill="#FF8B8B" transform="translate(63.500000, 130.500000) rotate(-338.000000) translate(-63.500000, -130.500000) " x="60" y="124" width="7" height="13" rx="3.4799999"/>
            </g>
        </g>
    </g>
    <div xmlns="" id="immersive-translate-popup" style="all: initial"/></svg>