<svg xmlns="http://www.w3.org/2000/svg" xmlns:xlink="http://www.w3.org/1999/xlink" width="212px" height="212px"
     viewBox="0 0 212 212" version="1.1">
    <title>dog</title>
    <desc>Created with Sketch.</desc>
    <defs>
        <path d="M46.5,0 L69.5,0 C95.1812409,-4.71756741e-15 116,20.8187591 116,46.5 L116,73 C116,84.045695 107.045695,93 96,93 L20,93 C8.954305,93 1.3527075e-15,84.045695 0,73 L0,46.5 C-3.14504494e-15,20.8187591 20.8187591,4.71756741e-15 46.5,0 Z"
              id="path-1"/>
    </defs>
    <g id="dog" stroke="none" stroke-width="1" fill="none" fill-rule="evenodd">
        <g id="Group-4" transform="translate(29.000000, 40.000000)">
            <g id="Group-3">
                <path d="M121,11.1987647 C121,7.77528151 123.769838,5 127.186607,5 L151.933034,5 C155.349803,5 158.119641,7.77528151 158.119641,11.1987647 L158.119641,31.8613139"
                      id="Rectangle-Copy-2" stroke="#21ADD4" stroke-width="32.67" stroke-linecap="round"
                      stroke-linejoin="round"
                      transform="translate(139.559821, 18.430657) scale(-1, 1) translate(-139.559821, -18.430657)"/>
                <path d="M0,11.1987647 C0,7.77528151 2.76983825,5 6.18660689,5 L30.9330345,5 C34.3498031,5 37.1196414,7.77528151 37.1196414,11.1987647 L37.1196414,31.8613139"
                      id="Rectangle-Copy" stroke="#21ADD4" stroke-width="32.67" stroke-linecap="round"
                      stroke-linejoin="round"/>
                <path d="M25,0 L133,0 C146.807119,-2.53632657e-15 158,11.1928813 158,25 L158,110 C158,123.807119 146.807119,135 133,135 L25,135 C11.1928813,135 1.69088438e-15,123.807119 0,110 L0,25 C-1.69088438e-15,11.1928813 11.1928813,2.53632657e-15 25,0 Z"
                      id="Rectangle-62" fill="#47D7FF"/>
                <g id="Rectangle-291" transform="translate(20.000000, 42.000000)">
                    <mask id="mask-2" fill="white">
                        <use xlink:href="#path-1"/>
                    </mask>
                    <use id="Mask" fill="#21ADD4" xlink:href="#path-1"/>
                </g>
                <rect id="Rectangle-2" fill="#F5A4A4" x="60" y="67" width="35" height="42" rx="17.5"/>
                <rect id="Rectangle" fill="#E8808D" x="74" y="72" width="7" height="27" rx="3.5"/>
                <path d="M24.5453953,46 L134,46 C135.104569,46 136,46.8954305 136,48 L136,82 C136,83.1045695 135.104569,84 134,84 L24.5453953,84 C23.4408258,84 22.5453953,83.1045695 22.5453953,82 L22.5453953,48 C22.5453953,46.8954305 23.4408258,46 24.5453953,46 Z"
                      id="Rectangle-Copy-3" fill="#FFFFFF"/>
                <rect id="Rectangle-289-Copy" fill="#21ADD4" x="47" y="38" width="62" height="27" rx="13.5"/>
                <g id="Group-2" transform="translate(57.000000, 13.000000)">
                    <g id="Group" fill="#1487A7">
                        <path d="M6.60784981,0.0066903244 C9.74855242,0.0066903244 12.2945949,2.55273285 12.2945949,5.69343547 L12.2945949,15.4417621 C12.2945949,18.5824647 9.74855242,21.1285072 6.60784981,21.1285072 C3.46714719,21.1285072 0.921104663,18.5824647 0.921104663,15.4417621 L0.921104663,5.69343547 C0.921104663,2.55273285 3.46714719,0.0066903244 6.60784981,0.0066903244 Z"
                              id="Rectangle-13"/>
                        <path d="M35.6078498,0.0066903244 C38.7485524,0.0066903244 41.2945949,2.55273285 41.2945949,5.69343547 L41.2945949,15.4417621 C41.2945949,18.5824647 38.7485524,21.1285072 35.6078498,21.1285072 C32.4671472,21.1285072 29.9211047,18.5824647 29.9211047,15.4417621 L29.9211047,5.69343547 C29.9211047,2.55273285 32.4671472,0.0066903244 35.6078498,0.0066903244 Z"
                              id="Rectangle-13"/>
                    </g>
                    <path d="M17.9306569,18 L23.7471184,18 C28.1270993,18 31.6777753,21.5506761 31.6777753,25.9306569 C31.6777753,30.3106378 28.1270993,33.8613139 23.7471184,33.8613139 L17.9306569,33.8613139 C13.5506761,33.8613139 10,30.3106378 10,25.9306569 C10,21.5506761 13.5506761,18 17.9306569,18 Z"
                          id="Rectangle-67" fill="#5A5A5A"/>
                </g>
                <path d="M129.5,96 C138.612698,96 146,88.6126984 146,79.5 C146,70.3873016 138.612698,63 129.5,63 C120.387302,63 113,70.3873016 113,79.5 C113,88.6126984 120.387302,96 129.5,96 Z"
                      id="Oval-Copy" fill="#FFFFFF"/>
                <path d="M129.5,66 C138.612698,66 146,58.6126984 146,49.5 C146,40.3873016 138.612698,33 129.5,33 C120.387302,33 113,40.3873016 113,49.5 C113,58.6126984 120.387302,66 129.5,66 Z"
                      id="Oval-Copy-4" fill="#FFFFFF"/>
                <path d="M27.5,96 C36.6126984,96 44,88.6126984 44,79.5 C44,70.3873016 36.6126984,63 27.5,63 C18.3873016,63 11,70.3873016 11,79.5 C11,88.6126984 18.3873016,96 27.5,96 Z"
                      id="Oval-Copy" fill="#FFFFFF"/>
                <path d="M27.5,66 C36.6126984,66 44,58.6126984 44,49.5 C44,40.3873016 36.6126984,33 27.5,33 C18.3873016,33 11,40.3873016 11,49.5 C11,58.6126984 18.3873016,66 27.5,66 Z"
                      id="Oval-Copy-4" fill="#FFFFFF"/>
            </g>
        </g>
    </g>
</svg>