<svg xmlns="http://www.w3.org/2000/svg" xmlns:xlink="http://www.w3.org/1999/xlink" width="212px" height="212px"
     viewBox="0 0 212 212" version="1.1">
    <!-- Generator: Sketch 64 (93537) - https://sketch.com -->
    <title>father</title>
    <desc>Created with Sketch.</desc>
    <defs>
        <path d="M19.7437114,0 L71.9770744,0 C82.8812251,7.68177135e-15 91.7207858,8.83956068 91.7207858,19.7437114 L91.7207858,97.0640947 L91.7207858,97.0640947 L0,97.0640947 L0,19.7437114 C-4.888087e-15,8.83956068 8.83956068,5.55577367e-15 19.7437114,0 Z"
              id="path-1"/>
        <path d="M16.3486797,0.652051726 C18.611914,-0.674503587 21.5220135,0.0848247924 22.8485688,2.34805913 C24.1514357,4.57087857 23.4422495,7.41766711 21.2723641,8.77538064 L21.1525614,8.84794827 L20.7825282,9.06483678 C15.0249262,12.4395548 7.86682359,12.3256506 2.21951059,8.7694505 C-0.000370621475,7.37155707 -0.666723377,4.43877125 0.731170058,2.21889003 C2.10364725,0.0393702954 4.95570996,-0.642599364 7.15995259,0.656344882 L7.28173053,0.730549498 C9.8724189,2.36194592 13.1417386,2.44709794 15.8092119,0.965629819 L15.9786465,0.868940232 L16.3486797,0.652051726 Z"
              id="path-3"/>
    </defs>
    <g id="father" stroke="none" stroke-width="1" fill="none" fill-rule="evenodd">
        <g id="Group-6"
           transform="translate(168.487975, 38.137550) rotate(-113.000000) translate(-168.487975, -38.137550) translate(135.987975, 7.637550)"
           fill="#47D7FF">
            <rect id="Rectangle" x="16.0738577" y="32.1148458" width="32.7804878" height="28.4210526" rx="6.31699699"/>
            <path d="M36.2007557,5.32963228 L58.500696,33.9381083 C60.1093214,36.0018053 59.7404129,38.9788109 57.6767158,40.5874363 C56.8444117,41.2362067 55.8193301,41.58853 54.7640419,41.58853 L10.1641614,41.58853 C7.54757555,41.58853 5.42641363,39.467368 5.42641363,36.8507822 C5.42641363,35.795494 5.77873685,34.7704124 6.42750726,33.9381083 L28.7274475,5.32963228 C30.3360729,3.2659352 33.3130785,2.89702672 35.3767756,4.50565214 C35.6842952,4.74535977 35.9610481,5.02211262 36.2007557,5.32963228 Z"
                  id="Triangle"/>
        </g>
        <g id="Group-19-Copy-2" transform="translate(7.000000, 3.000000)">
            <g id="Group-10-Copy-2">
                <path d="M141.872195,120.836512 L-0.525375136,120.836512 C-0.850259844,127.250085 1.62151093,133.091084 5.77789602,137.247469 C9.69000525,141.159578 15.0945338,143.579268 21.0642113,143.579268 L120.282609,143.579268 C126.252286,143.579268 131.656815,141.159578 135.568924,137.247469 C139.725309,133.091084 142.19708,127.250085 141.872195,120.836512 Z"
                      id="Rectangle-Copy-17" stroke="#FFB100" stroke-width="2.24928357" fill="#FFB100"
                      stroke-linejoin="round"/>
                <path d="M38.0587983,24.2422785 L104.037783,24.2422785 C115.63207,24.2422785 125.031097,33.6413051 125.031097,45.2355919 L125.031097,123.460676 L125.031097,123.460676 L17.0654849,123.460676 L17.0654849,45.2355919 C17.0654849,33.6413051 26.4645115,24.2422785 38.0587983,24.2422785 Z"
                      id="Rectangle-Copy-18" fill="#FFB100"/>
                <g id="Rectangle-Copy-41" transform="translate(24.313176, 38.737662)">
                    <mask id="mask-2" fill="white">
                        <use xlink:href="#path-1"/>
                    </mask>
                    <use id="Mask" fill="#FFC6B7" xlink:href="#path-1"/>
                    <rect id="Rectangle" fill="#FFB100" mask="url(#mask-2)" x="-11.2464179" y="-3.74880596"
                          width="20.743393" height="35.4886964" rx="10.3716965"/>
                    <rect id="Rectangle-Copy-15" fill="#FFB100" mask="url(#mask-2)" x="83.2234923" y="-3.74880596"
                          width="20.743393" height="35.4886964" rx="10.3716965"/>
                </g>
                <g id="Group-14-Copy-6" transform="translate(47.055933, 51.483602)">
                    <g id="Group-12">
                        <g id="Oval-Copy-29" transform="translate(0.171615, 0.133345)">
                            <g id="Group-8-Copy-3">
                                <g id="Group-7">
                                    <g id="Group-44">
                                        <path d="M11.7837306,0 C18.2917054,-1.19549556e-15 23.5674613,5.27575591 23.5674613,11.7837306 L23.5674613,18.9514562 C23.5674613,25.4594309 18.2917054,30.7351868 11.7837306,30.7351868 C5.27575591,30.7351868 -1.64195212e-15,25.4594309 0,18.9514562 L0,11.7837306 C-4.34971072e-15,5.27575591 5.27575591,1.19549556e-15 11.7837306,0 Z"
                                              id="Rectangle-130-Copy-42" fill="#FFFFFF"/>
                                        <path d="M15.0371672,6.99777112 C17.9589036,6.99777112 20.3274389,9.36630644 20.3274389,12.2880428 L20.3274389,18.932714 C20.3274389,21.8544504 17.9589036,24.2229857 15.0371672,24.2229857 C12.1154308,24.2229857 9.74689549,21.8544504 9.74689549,18.932714 L9.74689549,12.2880428 C9.74689549,9.36630644 12.1154308,6.99777112 15.0371672,6.99777112 Z"
                                              id="Combined-Shape" fill="#3D3D3D"/>
                                        <circle id="Oval" fill="#FFFFFF" cx="10.3716965" cy="8.12241291"
                                                r="3.87376616"/>
                                    </g>
                                </g>
                                <g id="Group-7-Copy-3"
                                   transform="translate(39.307810, 15.500000) scale(-1, 1) translate(-39.307810, -15.500000) translate(27.307810, 0.000000)">
                                    <path d="M11.7837306,0 C18.2917054,-1.19549556e-15 23.5674613,5.27575591 23.5674613,11.7837306 L23.5674613,18.9514562 C23.5674613,25.4594309 18.2917054,30.7351868 11.7837306,30.7351868 C5.27575591,30.7351868 -1.64195212e-15,25.4594309 0,18.9514562 L0,11.7837306 C-4.34971072e-15,5.27575591 5.27575591,1.19549556e-15 11.7837306,0 Z"
                                          id="Rectangle-130-Copy-42" fill="#FFFFFF"/>
                                    <path d="M14.287406,6.99777112 C17.2091424,6.99777112 19.5776777,9.36630644 19.5776777,12.2880428 L19.5776777,18.932714 C19.5776777,21.8544504 17.2091424,24.2229857 14.287406,24.2229857 C11.3656696,24.2229857 8.9971343,21.8544504 8.9971343,18.932714 L8.9971343,12.2880428 C8.9971343,9.36630644 11.3656696,6.99777112 14.287406,6.99777112 Z"
                                          id="Combined-Shape" fill="#3D3D3D"/>
                                    <circle id="Oval-Copy-22" fill="#FFFFFF" cx="18.1192288" cy="8.12241291"
                                            r="3.87376616"/>
                                </g>
                            </g>
                        </g>
                    </g>
                </g>
                <path d="M72.7977335,88.721741 C75.6963052,88.721741 78.0460618,86.3730863 78.0460618,83.4758739 C78.0460618,80.5786615 72.7977335,73.7265172 72.7977335,73.7265172 C72.7977335,73.7265172 67.5494052,80.5786615 67.5494052,83.4758739 C67.5494052,86.3730863 69.8991618,88.721741 72.7977335,88.721741 Z"
                      id="Oval-Copy-26" fill="#F3A577"/>
                <path d="M47.8056938,77.9751639 C53.8868851,78.3283305 58.7186794,80.9108413 62.3010768,85.7226962"
                      id="Path-5-Copy-2" stroke="#FFC6B7" stroke-width="4.74848755"/>
                <circle id="Oval-Copy-31" fill="#FFC6B7" cx="20.1894899" cy="73.1017162" r="10.1217761"/>
                <circle id="Oval-Copy-32" fill="#FFC6B7" cx="120.90741" cy="73.1017162" r="10.1217761"/>
                <g id="Group-16-Copy-3" transform="translate(35.809515, 5.998090)"/>
                <g id="Rectangle-Copy-54" transform="translate(41.057843, 81.723970)" fill="#702323"
                   fill-rule="nonzero">
                    <path d="M6.13530141,2.19370426 C9.9656177,0.542492959 14.3410701,1.92895361 16.5712098,5.28353581 C17.9956148,6.91827033 19.9864861,8.38555985 22.6233235,8.7319104 C22.9021784,8.74167906 23.1927241,8.7472139 23.4946876,8.7472139 L23.4946876,8.7472139 L23.6352058,8.7483523 C28.2633201,8.82339011 31.9919811,12.598511 31.9919811,17.2445074 C31.9919811,21.937433 28.1876132,25.7418009 23.4946876,25.7418009 C13.1360848,25.7418009 5.27949038,21.6732074 1.6960337,13.3606598 C-0.161765995,9.05112024 1.82576186,4.05150395 6.13530141,2.19370426 Z"
                          id="Mask"
                          transform="translate(16.495831, 13.619577) rotate(5.000000) translate(-16.495831, -13.619577) "/>
                </g>
                <rect id="Rectangle-Copy-44" fill="#FF4B4B" x="14.0664402" y="34.2390944" width="112.714099"
                      height="13.2457811" rx="3.24896516"/>
                <rect id="Rectangle-Copy-72" fill="#FFB100" x="48.555455" y="0" width="44.9856715" height="44.9856715"
                      rx="22.4928357"/>
                <path d="M36.3317761,15.2705099 L68.1269475,14.9690565 C69.8148025,14.9710831 71.0135166,16.6163815 70.4942963,18.2183676 C67.999627,25.9153414 60.7211144,31.2238578 52.4015974,31.2138823 C44.0820805,31.2038786 36.7908154,25.8778678 34.2776793,18.1748809 C33.7546154,16.5716433 34.6439211,15.2684833 36.3317761,15.2705099 Z"
                      id="Combined-Shape-Copy-64" fill="#FFB100" fill-rule="nonzero"
                      transform="translate(52.372429, 23.091469) rotate(-312.000000) translate(-52.372429, -23.091469) "/>
                <path d="M17.0654849,112.538603 C17.0654849,114.521537 17.0371382,119.734864 11.3173158,119.734864 C13.7926,122.154385 15.159097,123.212901 15.4168069,122.910414 L18.0889574,121.496825 L18.8149277,115.497146 C17.6486325,112.202827 17.0654849,111.216646 17.0654849,112.538603 Z"
                      id="Path-48-Copy-4" fill="#FFB100"/>
                <path d="M129.029823,112.538603 C129.029823,114.521537 129.001476,119.734864 123.281654,119.734864 C125.756938,122.154385 127.123435,123.212901 127.381145,122.910414 L130.053295,121.496825 L130.779266,115.497146 C129.61297,112.202827 129.029823,111.216646 129.029823,112.538603 Z"
                      id="Path-48-Copy-5" fill="#FFB100"
                      transform="translate(127.030460, 117.465794) scale(-1, 1) translate(-127.030460, -117.465794) "/>
            </g>
            <rect id="Rectangle-Copy-74" fill="#FF4B4B" x="19.8229489" y="129.874493" width="100.71792"
                  height="14.9952238" rx="2.74912437"/>
            <path d="M73.5065943,129.874493 C74.4303946,129.874493 75.2339153,130.507393 75.4503237,131.405488 L78.6945189,144.869493 L62.2215189,144.869493 L65.4654402,131.405488 C65.6818487,130.507393 66.4853693,129.874493 67.4091697,129.874493 L73.5065943,129.874493 Z"
                  id="Combined-Shape" fill="#FFFFFF"/>
        </g>
        <g id="Group-24-Copy-3"
           transform="translate(153.260027, 143.661960) rotate(39.000000) translate(-153.260027, -143.661960) translate(104.760027, 75.161960)">
            <rect id="Rectangle-Copy-51" fill="#FFC6B7" x="0" y="36.9464445" width="96.5" height="20" rx="10"/>
            <circle id="Oval-Copy-13" fill="#FF9600" cx="52.5" cy="12.5" r="5.5"/>
            <circle id="Oval-Copy-12" fill="#FF9600" cx="44.5" cy="7" r="7"/>
            <rect id="Rectangle-Copy-32" fill="#FFC6B7" x="12" y="11.9464445" width="71.5" height="115" rx="25"/>
            <g id="Group-24-Copy" transform="translate(24.000000, 22.446445)">
                <rect id="Rectangle-Copy-27" fill="#FFFFFF"
                      transform="translate(34.921149, 13.229999) rotate(-360.000000) translate(-34.921149, -13.229999) "
                      x="24.5261496" y="0" width="20.7899985" height="26.4599981" rx="10.3949993"/>
                <rect id="Rectangle-Copy-26" fill="#FFFFFF"
                      transform="translate(11.294999, 13.295959) rotate(-360.000000) translate(-11.294999, -13.295959) "
                      x="0.899999976" y="0.065960044" width="20.7899985" height="26.4599981" rx="10.3949993"/>
                <rect id="Mask-Copy-6" fill="#363636"
                      transform="translate(31.554370, 13.703067) rotate(-360.000000) translate(-31.554370, -13.703067) "
                      x="25.8843709" y="5.19806802" width="11.3399992" height="17.0099988" rx="5.66999959"/>
                <path d="M25.1273335,10.8004557 C25.6053179,11.0188651 26.136747,11.1405783 26.6966038,11.1405783 C28.78424,11.1405783 30.4766035,9.44821481 30.4766035,7.36057861 C30.4766035,5.96046842 29.7153865,4.73814998 28.5842371,4.08490772 L25.8546799,6.79597699 L25.1273335,10.8004557 Z"
                      id="Path-Copy" fill="#FFFFFF"
                      transform="translate(27.801969, 7.612743) rotate(2.000000) translate(-27.801969, -7.612743) "/>
                <rect id="Mask-Copy-5" fill="#363636"
                      transform="translate(14.521754, 14.053851) rotate(-360.000000) translate(-14.521754, -14.053851) "
                      x="8.85175414" y="5.54885189" width="11.3399992" height="17.0099988" rx="5.66999959"/>
                <circle id="Oval-Copy-8" fill="#FFFFFF"
                        transform="translate(9.706441, 6.728515) rotate(2.000000) translate(-9.706441, -6.728515) "
                        cx="9.70644078" cy="6.72851515" r="3.77999973"/>
                <path d="M43.0101475,18.9716713 L43.0101475,18.9716713 L43.0101475,18.9716713 L43.0101475,36.0716709 L25.910148,29.5719223 L27.4217015,27.9936403 C31.6581485,23.5701726 37.0641812,20.4413771 43.0101475,18.9716713 Z"
                      id="Rectangle-Copy-3" fill="#FFC6B7"
                      transform="translate(34.460148, 27.521671) rotate(-337.000000) translate(-34.460148, -27.521671) "/>
                <path d="M19.7999995,18.9716713 L19.7999995,18.9716713 L19.7999995,18.9716713 L19.7999995,36.0716709 L2.69999993,29.5719223 L4.21155346,27.9936403 C8.44800048,23.5701726 13.8540332,20.4413771 19.7999995,18.9716713 Z"
                      id="Rectangle-Copy-2" fill="#FFC6B7"
                      transform="translate(11.250000, 27.521671) scale(-1, 1) rotate(-337.000000) translate(-11.250000, -27.521671) "/>
            </g>
            <path d="M11,64.9464445 L85.5,64.9464445 C88.8137085,64.9464445 91.5,67.632736 91.5,70.9464445 L91.5,100.696445 C91.5,120.440624 75.4941798,136.446445 55.75,136.446445 L40.75,136.446445 C21.0058202,136.446445 5,120.440624 5,100.696445 L5,70.9464445 C5,67.632736 7.6862915,64.9464445 11,64.9464445 Z"
                  id="Rectangle-Copy-30" fill="#1CB0F6"/>
            <path d="M60.9150875,100.881302 C62.6488523,100.416741 64.4309474,101.445634 64.8955083,103.179399 C65.3600692,104.913164 64.3311761,106.695259 62.5974112,107.15982 C40.0165974,113.21033 16.9258482,103.503327 4.9999771,84.7792658 L5,70.9464445 C5,70.461784 5.05746452,69.9905451 5.16595187,69.5391694 C12.1173815,93.3344169 36.8470475,107.330314 60.9150875,100.881302 Z"
                  id="Combined-Shape-Copy-5" fill="#1899D6"/>
            <g id="Rectangle-Copy-56" transform="translate(35.749379, 52.946445)">
                <mask id="mask-4" fill="white">
                    <use xlink:href="#path-3"/>
                </mask>
                <use id="Mask" fill="#9A3333" fill-rule="nonzero" xlink:href="#path-3"/>
            </g>
            <path d="M47.1749994,53.5720396 C49.2874885,53.5720396 50.9999993,51.8099876 50.9999993,49.6363862 C50.9999993,47.4627849 47.1749994,42.3220399 47.1749994,42.3220399 C47.1749994,42.3220399 43.3499995,47.4627849 43.3499995,49.6363862 C43.3499995,51.8099876 45.0625103,53.5720396 47.1749994,53.5720396 Z"
                  id="Oval-Copy-22" fill="#EE9583"/>
            <path d="M55.5944771,62.5225235 L55.5019147,62.5706151 C50.271206,65.1933176 44.0783341,65.0875216 38.9393394,62.2853075 C39.5583098,61.7294386 40.2446656,61.2299331 40.993809,60.797415 C45.8194773,58.0113141 51.7496703,58.8712615 55.5944771,62.5225235 Z"
                  id="Combined-Shape" fill="#E15F3C" fill-rule="nonzero"/>
        </g>
        <path d="M61.4074989,86.3854123 L61.3051592,86.3397989 C62.9927617,87.0787538 64.4360794,88.360955 65.3552999,90.0457965 C66.631808,91.7984554 68.4872208,93.4336773 71.0838378,94.0085255 L71.3647794,94.0414456 L71.3647794,94.0414456 L72.0904366,94.1130961 L72.2236638,94.1299255 C71.4377929,94.8012772 70.4178593,95.206645 69.303247,95.206645 L65.8043615,95.206645 C63.9599104,95.206645 62.3747214,94.0966121 61.680395,92.5081468 C60.9866285,94.0966121 59.4014395,95.206645 57.5569884,95.206645 L54.0581028,95.206645 C51.9721401,95.206645 50.2177799,93.7868859 49.7086319,91.8609774 C50.4404112,89.2214336 52.4329233,86.9837928 55.2283998,86.0581733 C57.3396969,85.3590948 59.5301191,85.5338628 61.4074989,86.3854123 Z"
              id="Path" fill="#FFFFFF" fill-rule="nonzero"/>
        <path d="M76.1738877,101.968477 C77.389116,101.968477 78.5714047,102.109508 79.7052797,102.376096 C79.7123062,102.683276 79.7022394,102.993034 79.6749231,103.305262 C79.2659076,107.980329 75.144444,111.438648 70.4693764,111.029633 C67.7510161,110.791807 65.2302274,110.287851 62.9395431,109.517394 C65.6166008,104.998137 70.5414368,101.968477 76.1738877,101.968477 Z"
              id="Path" fill="#B23232" fill-rule="nonzero"/>
    </g>
    <div xmlns="" id="immersive-translate-popup" style="all: initial"/>
</svg>