<svg xmlns="http://www.w3.org/2000/svg" xmlns:xlink="http://www.w3.org/1999/xlink" width="212px" height="212px"
     viewBox="0 0 212 212" version="1.1">
    <title>student m</title>
    <desc>Created with Sketch.</desc>
    <g id="student-m" stroke="none" stroke-width="1" fill="none" fill-rule="evenodd">
        <g id="Group" transform="translate(8.000000, 8.000000)">
            <g id="Group-2">
                <rect id="Rectangle-Copy" stroke="#A56644" stroke-width="9" fill="#8FC255" stroke-linejoin="round" x="0"
                      y="0" width="187" height="129" rx="13"/>
                <text id="2+2=4"
                      transform="translate(24.500000, 64.500000) rotate(-90.000000) translate(-24.500000, -64.500000)"
                      font-family="DINNextRoundedLTPro-Bold, DIN Next Rounded LT Pro" font-size="29.005995"
                      font-weight="bold" fill="#FFFFFF">
                    <tspan x="-16" y="72">2+2=4</tspan>
                </text>
                <rect id="Rectangle" fill="#1B4C99" x="47" y="99" width="129" height="87" rx="25.3000005"/>
                <path d="M86.5,120 L136.5,120 C158.315248,120 176,137.684752 176,159.5 L176,196.8 C176,198.015026 175.015026,199 173.8,199 L49.2,199 C47.9849736,199 47,198.015026 47,196.8 L47,159.5 C47,137.684752 64.6847524,120 86.5,120 Z"
                      id="Rectangle-Copy-56" fill="#1CB0F6"/>
                <path d="M131.380491,120 C139.656422,120 147.39242,122.311725 153.977975,126.324664 L115.673671,195.232865 C114.24507,197.802853 111.003573,198.728131 108.433584,197.29953 C107.539809,196.8027 106.808024,196.058986 106.325708,195.157297 L69.0209774,125.415714 C75.2543734,121.964681 82.4249751,120 90.0544528,120 L131.380491,120 Z"
                      id="Combined-Shape" fill="#1899D6"/>
                <rect id="Rectangle-Copy-21" fill="#D8D8D8" x="108" y="66" width="8" height="22" rx="2.96999999"/>
                <path d="M128.228969,118 C134.120201,118 139.755389,119.096254 144.941669,121.095896 L115.983809,178.2761 C114.776132,180.660792 111.863942,181.614952 109.479249,180.407275 C108.537505,179.930349 107.777505,179.158611 107.315068,178.209668 L79.0529204,120.213791 C83.5327304,118.776236 88.3087552,118 93.2660796,118 L128.228969,118 Z"
                      id="Combined-Shape" fill="#FFFFFF"/>
                <path d="M92,96 L132,96 L132,120 C132,131.045695 123.045695,140 112,140 C100.954305,140 92,131.045695 92,120 L92,96 L92,96 Z"
                      id="Rectangle-Copy-23" fill="#FFD1B1"/>
                <path d="M70.6299958,118.753487 L79.8299956,114.711063 C82.0547563,113.733516 84.6507392,114.744583 85.6282856,116.969344 C85.8734215,117.52724 86,118.129972 86,118.739348 L86,199 L86,199 L68,199 L68,122.781772 C68,121.036198 69.0318888,119.455685 70.6299958,118.753487 Z"
                      id="Rectangle" fill="#1B4C99"/>
                <path d="M143.03056,115.406132 L152.23056,119.076839 C153.902936,119.744101 155,121.362981 155,123.163559 L155,192 L155,192 L137,192 L137,119.492852 C137,117.062799 138.969947,115.092852 141.4,115.092852 C141.958476,115.092852 142.511847,115.199171 143.03056,115.406132 Z"
                      id="Rectangle-Copy-3" fill="#1B4C99"/>
                <rect id="Rectangle-Copy-42" fill="#FFD1B1" x="67" y="18" width="90" height="102" rx="45"/>
                <rect id="Rectangle-Copy-48" fill="#FFD1B1" x="58" y="70" width="108" height="26" rx="13"/>
                <path d="M216,133.237855 L216,199 L216,199 L194.24766,199 C185.742475,199 178.84766,192.105185 178.84766,183.6 C178.84766,180.207315 179.968002,176.909582 182.034674,174.21901 L214.027644,132.567785 C214.397714,132.085995 215.088282,131.995429 215.570071,132.365499 C215.841125,132.5737 216,132.896068 216,133.237855 Z"
                      id="Rectangle-Copy-4" fill="#1CB0F6"
                      transform="translate(189.500000, 164.500000) scale(-1, 1) translate(-189.500000, -164.500000)"/>
                <path d="M61,134.237855 L61,200 L61,200 L39.2476601,200 C30.7424748,200 23.8476598,193.105185 23.8476598,184.6 C23.8476598,181.207315 24.9680021,177.909582 27.0346735,175.21901 L59.0276438,133.567785 C59.3977136,133.085995 60.0882817,132.995429 60.5700707,133.365499 C60.8411251,133.5737 61,133.896068 61,134.237855 Z"
                      id="Rectangle-Copy-5" fill="#1CB0F6"/>
                <path d="M164,186.9 C164,193.582645 158.582646,199 151.9,199 L143.452941,199 C136.770296,199 131.352941,193.582645 131.352941,186.9 L131.352104,183.133038 C128.795111,182.056158 127,179.526777 127,176.578125 C127,172.651726 130.182976,169.46875 134.109375,169.46875 L140.567096,169.46875 C140.993756,169.46875 141.411638,169.506335 141.817611,169.578373 C142.352376,169.506068 142.898301,169.46875 143.452941,169.46875 L151.9,169.46875 C152.310844,169.46875 152.716905,169.489226 153.117219,169.529213 L153.117647,169.441177 C153.117647,166.436098 155.553745,164 158.558824,164 C161.563903,164 164,166.436098 164,169.441177 L164,186.9 Z"
                      id="Combined-Shape" fill="#FFD1B1"/>
                <rect id="Rectangle-Copy-47" fill="#FF4B4B"
                      transform="translate(71.280000, 163.870000) scale(-1, 1) translate(-71.280000, -163.870000)"
                      x="47.5200002" y="131.37" width="47.5199998" height="65" rx="3.84911993"/>
                <rect id="Rectangle-Copy-46" fill="#FF4B4B"
                      transform="translate(77.715000, 169.640000) scale(-1, 1) translate(-77.715000, -169.640000)"
                      x="56.4300002" y="139.94" width="42.5699998" height="59.3999997" rx="3.84911993"/>
                <path d="M46.5300003,131.34 L55.5508803,131.34 C57.6766905,131.34 59.4000002,133.063309 59.4000002,135.18912 L59.4000002,195.49088 C59.4000002,197.61669 57.6766905,199.34 55.5508803,199.34 L46.5300003,199.34 L46.5300003,199.34 L46.5300003,131.34 Z"
                      id="Rectangle-Copy-45" fill="#C42121"
                      transform="translate(52.965000, 165.340000) scale(-1, 1) translate(-52.965000, -165.340000)"/>
                <path d="M57.2491201,135.96 L88.4200002,135.96 C89.513524,135.96 90.4000002,136.846476 90.4000002,137.94 C90.4000002,139.033524 89.513524,139.92 88.4200002,139.92 L53.4000002,139.92 L53.4000002,139.92 L53.4000002,139.80912 C53.4000002,137.68331 55.1233099,135.96 57.2491201,135.96 Z"
                      id="Rectangle-Copy-44" fill="#FFFFFF"
                      transform="translate(71.900000, 137.940000) scale(-1, 1) translate(-71.900000, -137.940000)"/>
                <rect id="Rectangle-Copy-37" fill="#C42121"
                      transform="translate(79.200000, 153.800000) scale(-1, 1) translate(-79.200000, -153.800000)"
                      x="65.3400002" y="151.82" width="27.7199999" height="3.95999998" rx="1.97999999"/>
                <rect id="Rectangle-Copy-35" fill="#C42121"
                      transform="translate(79.200000, 161.720000) scale(-1, 1) translate(-79.200000, -161.720000)"
                      x="65.3400002" y="159.74" width="27.7199999" height="3.95999998" rx="1.97999999"/>
                <path d="M75.0000002,187.9 C75.0000002,194.582645 69.5826456,200 62.9,200 L54.4529415,200 C47.7702958,200 42.3529412,194.582645 42.3529412,187.9 L42.3521037,184.133038 C39.7951114,183.056158 38,180.526777 38,177.578125 C38,173.651726 41.1829756,170.46875 45.109375,170.46875 L51.5670957,170.46875 C51.993756,170.46875 52.411638,170.506335 52.8176114,170.578373 C53.3523756,170.506068 53.8983005,170.46875 54.4529415,170.46875 L62.9,170.46875 C63.3108437,170.46875 63.716905,170.489226 64.117219,170.529213 L64.1176472,170.441177 C64.1176472,167.436098 66.5537449,165 69.5588237,165 C72.5639025,165 75.0000002,167.436098 75.0000002,170.441177 L75.0000002,187.9 Z"
                      id="Combined-Shape-Copy-3" fill="#FFD1B1"
                      transform="translate(56.500000, 182.500000) scale(-1, 1) translate(-56.500000, -182.500000)"/>
                <path d="M68.1,58 L77.9,58 C78.5075132,58 79,58.4924868 79,59.1 L79,67 C79,71.9705627 74.9705627,76 70,76 L67,76 L67,76 L67,59.1 C67,58.4924868 67.4924868,58 68.1,58 Z"
                      id="Rectangle" fill="#4B4B4B"/>
                <path d="M106,102 C106,108.627417 111.372583,114 118,114 L118,114" id="Path" stroke="#EBA080"
                      stroke-width="5.50000012" stroke-linecap="round" stroke-linejoin="round"
                      transform="translate(112.000000, 108.000000) rotate(-45.000000) translate(-112.000000, -108.000000)"/>
                <path d="M147.5,22 L153.7,22 C155.52254,22 157,23.4774604 157,25.3000001 L157,60 C157,70.4934102 148.49341,79 138,79 L138,79 L138,79 L138,31.5 C138,26.2532949 142.253295,22 147.5,22 Z"
                      id="Rectangle-Copy-8" fill="#4B4B4B"
                      transform="translate(147.500000, 50.500000) scale(-1, 1) translate(-147.500000, -50.500000)"/>
                <rect id="Rectangle" fill="#F29F7C" x="106" y="79" width="12" height="23" rx="6"/>
                <rect id="Rectangle-Copy-49" fill="#4B4B4B"
                      transform="translate(115.000000, 29.000000) rotate(-360.000000) translate(-115.000000, -29.000000)"
                      x="73" y="12" width="84" height="34" rx="17"/>
                <rect id="Rectangle" fill="#FFD1B1"
                      transform="translate(130.400602, 50.570637) rotate(20.000000) translate(-130.400602, -50.570637)"
                      x="124.400602" y="39.0706369" width="12" height="23" rx="6"/>
                <rect id="Rectangle" stroke="#CD7900" stroke-width="5.50000012" fill="#FFFFFF" x="113" y="57" width="34"
                      height="34" rx="12.1000003"/>
                <rect id="Rectangle-Copy-2" stroke="#CD7900" stroke-width="5.50000012" fill="#FFFFFF" x="77" y="57"
                      width="34" height="34" rx="12.1000003"/>
                <path d="M81.5,12 L123.7,12 C125.52254,12 127,13.4774604 127,15.3000001 L127,38.5 C127,53.1355459 115.135546,65 100.5,65 L58.3000001,65 C56.4774604,65 55,63.5225396 55,61.6999999 L55,38.5 C55,23.8644541 66.8644541,12 81.5,12 Z"
                      id="Rectangle" fill="#4B4B4B"/>
                <rect id="Rectangle" fill="#4B4B4B" x="120" y="65" width="12" height="18" rx="6"/>
                <rect id="Rectangle-Copy-6" fill="#4B4B4B" x="93" y="65" width="12" height="18" rx="6"/>
            </g>
            <g id="Group-7"
               transform="translate(72.500000, 165.500000) scale(-1, 1) translate(-72.500000, -165.500000) translate(46.000000, 131.000000)"/>
        </g>
    </g>
</svg>